<mxfile host="drawio-plugin" modified="2021-08-31T13:34:53.441Z" agent="5.0 (Windows NT 6.2; Win64; x64) AppleWebKit/537.36 (KHTML, like Gecko) Chrome/89.0.4389.114 Safari/537.36" etag="eui73kYWM4k2osofdbhs" version="14.7.4" type="embed"><diagram id="FY32SegJRbvCbCpzABQR" name="Pagina-1"><mxGraphModel dx="645" dy="538" grid="1" gridSize="10" guides="1" tooltips="1" connect="1" arrows="1" fold="1" page="1" pageScale="1" pageWidth="1169" pageHeight="827" math="0" shadow="0"><root><mxCell id="0"/><mxCell id="1" parent="0"/><mxCell id="3HwnEbcw_e1XSlA-QCfB-1" value="EUser" style="swimlane;fontStyle=1;align=center;verticalAlign=top;childLayout=stackLayout;horizontal=1;startSize=26;horizontalStack=0;resizeParent=1;resizeParentMax=0;resizeLast=0;collapsible=1;marginBottom=0;" parent="1" vertex="1"><mxGeometry x="130" y="210" width="290" height="320" as="geometry"/></mxCell><mxCell id="3HwnEbcw_e1XSlA-QCfB-2" value="-id: int" style="text;align=left;verticalAlign=top;spacingLeft=4;spacingRight=4;overflow=hidden;rotatable=0;points=[[0,0.5],[1,0.5]];portConstraint=eastwest;" parent="3HwnEbcw_e1XSlA-QCfB-1" vertex="1"><mxGeometry y="26" width="290" height="26" as="geometry"/></mxCell><mxCell id="9W8yVL9PC2JfzHvcN7Px-11" value="- nome: string" style="text;align=left;verticalAlign=top;spacingLeft=4;spacingRight=4;overflow=hidden;rotatable=0;points=[[0,0.5],[1,0.5]];portConstraint=eastwest;" parent="3HwnEbcw_e1XSlA-QCfB-1" vertex="1"><mxGeometry y="52" width="290" height="26" as="geometry"/></mxCell><mxCell id="3HwnEbcw_e1XSlA-QCfB-5" value="- cognome: string" style="text;align=left;verticalAlign=top;spacingLeft=4;spacingRight=4;overflow=hidden;rotatable=0;points=[[0,0.5],[1,0.5]];portConstraint=eastwest;" parent="3HwnEbcw_e1XSlA-QCfB-1" vertex="1"><mxGeometry y="78" width="290" height="26" as="geometry"/></mxCell><mxCell id="3HwnEbcw_e1XSlA-QCfB-6" value="-email: string" style="text;align=left;verticalAlign=top;spacingLeft=4;spacingRight=4;overflow=hidden;rotatable=0;points=[[0,0.5],[1,0.5]];portConstraint=eastwest;" parent="3HwnEbcw_e1XSlA-QCfB-1" vertex="1"><mxGeometry y="104" width="290" height="26" as="geometry"/></mxCell><mxCell id="3HwnEbcw_e1XSlA-QCfB-7" value="- corsoStudio: string" style="text;align=left;verticalAlign=top;spacingLeft=4;spacingRight=4;overflow=hidden;rotatable=0;points=[[0,0.5],[1,0.5]];portConstraint=eastwest;" parent="3HwnEbcw_e1XSlA-QCfB-1" vertex="1"><mxGeometry y="130" width="290" height="26" as="geometry"/></mxCell><mxCell id="3HwnEbcw_e1XSlA-QCfB-9" value="- fotoProfilo: array" style="text;align=left;verticalAlign=top;spacingLeft=4;spacingRight=4;overflow=hidden;rotatable=0;points=[[0,0.5],[1,0.5]];portConstraint=eastwest;" parent="3HwnEbcw_e1XSlA-QCfB-1" vertex="1"><mxGeometry y="156" width="290" height="26" as="geometry"/></mxCell><mxCell id="3HwnEbcw_e1XSlA-QCfB-8" value="-password: string" style="text;align=left;verticalAlign=top;spacingLeft=4;spacingRight=4;overflow=hidden;rotatable=0;points=[[0,0.5],[1,0.5]];portConstraint=eastwest;" parent="3HwnEbcw_e1XSlA-QCfB-1" vertex="1"><mxGeometry y="182" width="290" height="26" as="geometry"/></mxCell><mxCell id="3HwnEbcw_e1XSlA-QCfB-3" value="" style="line;strokeWidth=1;align=left;verticalAlign=middle;spacingTop=-1;spacingLeft=3;spacingRight=3;rotatable=0;labelPosition=right;points=[];portConstraint=eastwest;fillColor=#FFFFFF;" parent="3HwnEbcw_e1XSlA-QCfB-1" vertex="1"><mxGeometry y="208" width="290" height="8" as="geometry"/></mxCell><mxCell id="n_LDOD_mzaV1U_1weBb0-3" value="+ generaPassword(): string" style="text;align=left;verticalAlign=top;spacingLeft=4;spacingRight=4;overflow=hidden;rotatable=0;points=[[0,0.5],[1,0.5]];portConstraint=eastwest;" parent="3HwnEbcw_e1XSlA-QCfB-1" vertex="1"><mxGeometry y="216" width="290" height="26" as="geometry"/></mxCell><mxCell id="-nfdwurBLemHVK1uT5sE-1" value="+ resetFotoProfilo(): void" style="text;align=left;verticalAlign=top;spacingLeft=4;spacingRight=4;overflow=hidden;rotatable=0;points=[[0,0.5],[1,0.5]];portConstraint=eastwest;" parent="3HwnEbcw_e1XSlA-QCfB-1" vertex="1"><mxGeometry y="242" width="290" height="26" as="geometry"/></mxCell><mxCell id="-nfdwurBLemHVK1uT5sE-2" value="+ resetCorsoStudio(): void" style="text;align=left;verticalAlign=top;spacingLeft=4;spacingRight=4;overflow=hidden;rotatable=0;points=[[0,0.5],[1,0.5]];portConstraint=eastwest;" parent="3HwnEbcw_e1XSlA-QCfB-1" vertex="1"><mxGeometry y="268" width="290" height="26" as="geometry"/></mxCell><mxCell id="n_LDOD_mzaV1U_1weBb0-1" value="+ verificaPassword(): bool" style="text;align=left;verticalAlign=top;spacingLeft=4;spacingRight=4;overflow=hidden;rotatable=0;points=[[0,0.5],[1,0.5]];portConstraint=eastwest;" parent="3HwnEbcw_e1XSlA-QCfB-1" vertex="1"><mxGeometry y="294" width="290" height="26" as="geometry"/></mxCell><mxCell id="3HwnEbcw_e1XSlA-QCfB-112" style="edgeStyle=orthogonalEdgeStyle;rounded=0;orthogonalLoop=1;jettySize=auto;html=1;startArrow=none;startFill=0;endArrow=openThin;endFill=0;" parent="1" source="3HwnEbcw_e1XSlA-QCfB-20" target="3HwnEbcw_e1XSlA-QCfB-1" edge="1"><mxGeometry relative="1" as="geometry"/></mxCell><mxCell id="3HwnEbcw_e1XSlA-QCfB-113" value="&lt;b&gt;&lt;font style=&quot;font-size: 14px&quot;&gt;0 .. *&lt;/font&gt;&lt;/b&gt;" style="edgeLabel;html=1;align=center;verticalAlign=middle;resizable=0;points=[];" parent="3HwnEbcw_e1XSlA-QCfB-112" vertex="1" connectable="0"><mxGeometry x="-0.907" relative="1" as="geometry"><mxPoint x="-4" y="-13" as="offset"/></mxGeometry></mxCell><mxCell id="3HwnEbcw_e1XSlA-QCfB-114" value="&lt;b&gt;&lt;font style=&quot;font-size: 14px&quot;&gt;1&lt;/font&gt;&lt;/b&gt;" style="edgeLabel;html=1;align=center;verticalAlign=middle;resizable=0;points=[];" parent="3HwnEbcw_e1XSlA-QCfB-112" vertex="1" connectable="0"><mxGeometry x="0.8895" y="1" relative="1" as="geometry"><mxPoint x="9" as="offset"/></mxGeometry></mxCell><mxCell id="3HwnEbcw_e1XSlA-QCfB-115" value="&lt;font style=&quot;font-size: 14px&quot;&gt;&lt;b&gt;autoreMessaggio&lt;/b&gt;&lt;/font&gt;" style="edgeLabel;html=1;align=center;verticalAlign=middle;resizable=0;points=[];" parent="3HwnEbcw_e1XSlA-QCfB-112" vertex="1" connectable="0"><mxGeometry x="-0.5174" relative="1" as="geometry"><mxPoint x="23" y="14" as="offset"/></mxGeometry></mxCell><mxCell id="3HwnEbcw_e1XSlA-QCfB-20" value="EMessaggio" style="swimlane;fontStyle=1;align=center;verticalAlign=top;childLayout=stackLayout;horizontal=1;startSize=26;horizontalStack=0;resizeParent=1;resizeParentMax=0;resizeLast=0;collapsible=1;marginBottom=0;" parent="1" vertex="1"><mxGeometry x="515" y="30" width="160" height="112" as="geometry"/></mxCell><mxCell id="9W8yVL9PC2JfzHvcN7Px-12" value="- id: int" style="text;align=left;verticalAlign=top;spacingLeft=4;spacingRight=4;overflow=hidden;rotatable=0;points=[[0,0.5],[1,0.5]];portConstraint=eastwest;fillColor=#FFFFFF;" parent="3HwnEbcw_e1XSlA-QCfB-20" vertex="1"><mxGeometry y="26" width="160" height="26" as="geometry"/></mxCell><mxCell id="3HwnEbcw_e1XSlA-QCfB-21" value="- testo: string" style="text;align=left;verticalAlign=top;spacingLeft=4;spacingRight=4;overflow=hidden;rotatable=0;points=[[0,0.5],[1,0.5]];portConstraint=eastwest;fillColor=#FFFFFF;" parent="3HwnEbcw_e1XSlA-QCfB-20" vertex="1"><mxGeometry y="52" width="160" height="26" as="geometry"/></mxCell><mxCell id="3HwnEbcw_e1XSlA-QCfB-22" value="- data: string" style="text;align=left;verticalAlign=top;spacingLeft=4;spacingRight=4;overflow=hidden;rotatable=0;points=[[0,0.5],[1,0.5]];portConstraint=eastwest;fillColor=#FFFFFF;" parent="3HwnEbcw_e1XSlA-QCfB-20" vertex="1"><mxGeometry y="78" width="160" height="26" as="geometry"/></mxCell><mxCell id="3HwnEbcw_e1XSlA-QCfB-27" value="" style="line;strokeWidth=1;align=left;verticalAlign=middle;spacingTop=-1;spacingLeft=3;spacingRight=3;rotatable=0;labelPosition=right;points=[];portConstraint=eastwest;fillColor=#FFFFFF;" parent="3HwnEbcw_e1XSlA-QCfB-20" vertex="1"><mxGeometry y="104" width="160" height="8" as="geometry"/></mxCell><mxCell id="3HwnEbcw_e1XSlA-QCfB-116" style="edgeStyle=orthogonalEdgeStyle;rounded=0;orthogonalLoop=1;jettySize=auto;html=1;startArrow=none;startFill=0;endArrow=openThin;endFill=0;" parent="1" source="3HwnEbcw_e1XSlA-QCfB-29" target="3HwnEbcw_e1XSlA-QCfB-1" edge="1"><mxGeometry relative="1" as="geometry"><Array as="points"><mxPoint x="465" y="312"/><mxPoint x="465" y="312"/></Array></mxGeometry></mxCell><mxCell id="3HwnEbcw_e1XSlA-QCfB-117" value="&lt;b&gt;&lt;font style=&quot;font-size: 14px&quot;&gt;0 .. *&lt;/font&gt;&lt;/b&gt;" style="edgeLabel;html=1;align=center;verticalAlign=middle;resizable=0;points=[];" parent="3HwnEbcw_e1XSlA-QCfB-116" vertex="1" connectable="0"><mxGeometry x="-0.9143" relative="1" as="geometry"><mxPoint x="-8" y="-13" as="offset"/></mxGeometry></mxCell><mxCell id="3HwnEbcw_e1XSlA-QCfB-118" value="&lt;b&gt;&lt;font style=&quot;font-size: 14px&quot;&gt;1&lt;/font&gt;&lt;/b&gt;" style="edgeLabel;html=1;align=center;verticalAlign=middle;resizable=0;points=[];" parent="3HwnEbcw_e1XSlA-QCfB-116" vertex="1" connectable="0"><mxGeometry x="0.9286" y="-1" relative="1" as="geometry"><mxPoint y="-11" as="offset"/></mxGeometry></mxCell><mxCell id="3HwnEbcw_e1XSlA-QCfB-119" value="&lt;font style=&quot;font-size: 14px&quot;&gt;&lt;b&gt;autoreThread&lt;/b&gt;&lt;/font&gt;" style="edgeLabel;html=1;align=center;verticalAlign=middle;resizable=0;points=[];" parent="3HwnEbcw_e1XSlA-QCfB-116" vertex="1" connectable="0"><mxGeometry x="-0.35" y="1" relative="1" as="geometry"><mxPoint x="17" y="7" as="offset"/></mxGeometry></mxCell><mxCell id="3HwnEbcw_e1XSlA-QCfB-124" style="edgeStyle=orthogonalEdgeStyle;rounded=0;orthogonalLoop=1;jettySize=auto;html=1;entryX=0.5;entryY=0;entryDx=0;entryDy=0;startArrow=none;startFill=0;endArrow=openThin;endFill=0;" parent="1" source="3HwnEbcw_e1XSlA-QCfB-29" target="3HwnEbcw_e1XSlA-QCfB-65" edge="1"><mxGeometry relative="1" as="geometry"/></mxCell><mxCell id="3HwnEbcw_e1XSlA-QCfB-125" value="&lt;b&gt;&lt;font style=&quot;font-size: 14px&quot;&gt;1&lt;/font&gt;&lt;/b&gt;" style="edgeLabel;html=1;align=center;verticalAlign=middle;resizable=0;points=[];" parent="3HwnEbcw_e1XSlA-QCfB-124" vertex="1" connectable="0"><mxGeometry x="-0.7414" relative="1" as="geometry"><mxPoint x="10" y="-5" as="offset"/></mxGeometry></mxCell><mxCell id="3HwnEbcw_e1XSlA-QCfB-127" value="&lt;b&gt;&lt;font style=&quot;font-size: 14px&quot;&gt;0 .. *&lt;/font&gt;&lt;/b&gt;" style="edgeLabel;html=1;align=center;verticalAlign=middle;resizable=0;points=[];" parent="3HwnEbcw_e1XSlA-QCfB-124" vertex="1" connectable="0"><mxGeometry x="0.7241" y="-1" relative="1" as="geometry"><mxPoint x="21" as="offset"/></mxGeometry></mxCell><mxCell id="3HwnEbcw_e1XSlA-QCfB-128" value="&lt;b&gt;&lt;font style=&quot;font-size: 14px&quot;&gt;risposte&lt;/font&gt;&lt;/b&gt;" style="edgeLabel;html=1;align=center;verticalAlign=middle;resizable=0;points=[];" parent="3HwnEbcw_e1XSlA-QCfB-124" vertex="1" connectable="0"><mxGeometry x="0.2759" y="-1" relative="1" as="geometry"><mxPoint x="-34" y="-47" as="offset"/></mxGeometry></mxCell><mxCell id="3HwnEbcw_e1XSlA-QCfB-132" style="edgeStyle=orthogonalEdgeStyle;rounded=0;orthogonalLoop=1;jettySize=auto;html=1;startArrow=diamondThin;startFill=1;endArrow=openThin;endFill=0;" parent="1" source="3HwnEbcw_e1XSlA-QCfB-29" target="3HwnEbcw_e1XSlA-QCfB-56" edge="1"><mxGeometry relative="1" as="geometry"><Array as="points"><mxPoint x="995" y="360"/></Array></mxGeometry></mxCell><mxCell id="3HwnEbcw_e1XSlA-QCfB-134" value="&lt;b&gt;&lt;font style=&quot;font-size: 14px&quot;&gt;1&lt;/font&gt;&lt;/b&gt;" style="edgeLabel;html=1;align=center;verticalAlign=middle;resizable=0;points=[];" parent="3HwnEbcw_e1XSlA-QCfB-132" vertex="1" connectable="0"><mxGeometry x="-0.9226" relative="1" as="geometry"><mxPoint y="-13" as="offset"/></mxGeometry></mxCell><mxCell id="3HwnEbcw_e1XSlA-QCfB-135" value="&lt;b&gt;&lt;font style=&quot;font-size: 14px&quot;&gt;1&lt;/font&gt;&lt;/b&gt;" style="edgeLabel;html=1;align=center;verticalAlign=middle;resizable=0;points=[];" parent="3HwnEbcw_e1XSlA-QCfB-132" vertex="1" connectable="0"><mxGeometry x="0.8129" y="-1" relative="1" as="geometry"><mxPoint x="11" y="9" as="offset"/></mxGeometry></mxCell><mxCell id="3HwnEbcw_e1XSlA-QCfB-145" value="&lt;b&gt;&lt;font style=&quot;font-size: 14px&quot;&gt;valutazione&lt;/font&gt;&lt;/b&gt;" style="edgeLabel;html=1;align=center;verticalAlign=middle;resizable=0;points=[];" parent="3HwnEbcw_e1XSlA-QCfB-132" vertex="1" connectable="0"><mxGeometry x="-0.6065" y="2" relative="1" as="geometry"><mxPoint x="-11" y="12" as="offset"/></mxGeometry></mxCell><mxCell id="3HwnEbcw_e1XSlA-QCfB-140" style="edgeStyle=orthogonalEdgeStyle;rounded=0;orthogonalLoop=1;jettySize=auto;html=1;startArrow=none;startFill=0;endArrow=openThin;endFill=0;" parent="1" source="3HwnEbcw_e1XSlA-QCfB-29" target="3HwnEbcw_e1XSlA-QCfB-47" edge="1"><mxGeometry relative="1" as="geometry"><Array as="points"><mxPoint x="905" y="299"/><mxPoint x="905" y="299"/></Array></mxGeometry></mxCell><mxCell id="3HwnEbcw_e1XSlA-QCfB-141" value="&lt;b&gt;&lt;font style=&quot;font-size: 14px&quot;&gt;0 .. *&lt;/font&gt;&lt;/b&gt;" style="edgeLabel;html=1;align=center;verticalAlign=middle;resizable=0;points=[];" parent="3HwnEbcw_e1XSlA-QCfB-140" vertex="1" connectable="0"><mxGeometry x="-0.8929" y="-2" relative="1" as="geometry"><mxPoint x="5" y="-19" as="offset"/></mxGeometry></mxCell><mxCell id="3HwnEbcw_e1XSlA-QCfB-143" value="&lt;b&gt;&lt;font style=&quot;font-size: 14px&quot;&gt;1&lt;/font&gt;&lt;/b&gt;" style="edgeLabel;html=1;align=center;verticalAlign=middle;resizable=0;points=[];" parent="3HwnEbcw_e1XSlA-QCfB-140" vertex="1" connectable="0"><mxGeometry x="0.8429" y="-2" relative="1" as="geometry"><mxPoint x="12" y="-21" as="offset"/></mxGeometry></mxCell><mxCell id="3HwnEbcw_e1XSlA-QCfB-144" value="&lt;b&gt;&lt;font style=&quot;font-size: 14px&quot;&gt;categoriaThread&lt;/font&gt;&lt;/b&gt;" style="edgeLabel;html=1;align=center;verticalAlign=middle;resizable=0;points=[];" parent="3HwnEbcw_e1XSlA-QCfB-140" vertex="1" connectable="0"><mxGeometry x="-0.9071" relative="1" as="geometry"><mxPoint x="47" y="11" as="offset"/></mxGeometry></mxCell><mxCell id="3HwnEbcw_e1XSlA-QCfB-29" value="EThread" style="swimlane;fontStyle=1;align=center;verticalAlign=top;childLayout=stackLayout;horizontal=1;startSize=26;horizontalStack=0;resizeParent=1;resizeParentMax=0;resizeLast=0;collapsible=1;marginBottom=0;" parent="1" vertex="1"><mxGeometry x="645" y="230" width="220" height="190" as="geometry"/></mxCell><mxCell id="9W8yVL9PC2JfzHvcN7Px-13" value="- id: int" style="text;align=left;verticalAlign=top;spacingLeft=4;spacingRight=4;overflow=hidden;rotatable=0;points=[[0,0.5],[1,0.5]];portConstraint=eastwest;fillColor=#FFFFFF;" parent="3HwnEbcw_e1XSlA-QCfB-29" vertex="1"><mxGeometry y="26" width="220" height="26" as="geometry"/></mxCell><mxCell id="3HwnEbcw_e1XSlA-QCfB-30" value="- titolo: string" style="text;align=left;verticalAlign=top;spacingLeft=4;spacingRight=4;overflow=hidden;rotatable=0;points=[[0,0.5],[1,0.5]];portConstraint=eastwest;fillColor=#FFFFFF;" parent="3HwnEbcw_e1XSlA-QCfB-29" vertex="1"><mxGeometry y="52" width="220" height="26" as="geometry"/></mxCell><mxCell id="3HwnEbcw_e1XSlA-QCfB-31" value="- testo: string" style="text;align=left;verticalAlign=top;spacingLeft=4;spacingRight=4;overflow=hidden;rotatable=0;points=[[0,0.5],[1,0.5]];portConstraint=eastwest;fillColor=#FFFFFF;" parent="3HwnEbcw_e1XSlA-QCfB-29" vertex="1"><mxGeometry y="78" width="220" height="26" as="geometry"/></mxCell><mxCell id="3HwnEbcw_e1XSlA-QCfB-32" value="- data: string" style="text;align=left;verticalAlign=top;spacingLeft=4;spacingRight=4;overflow=hidden;rotatable=0;points=[[0,0.5],[1,0.5]];portConstraint=eastwest;fillColor=#FFFFFF;" parent="3HwnEbcw_e1XSlA-QCfB-29" vertex="1"><mxGeometry y="104" width="220" height="26" as="geometry"/></mxCell><mxCell id="3HwnEbcw_e1XSlA-QCfB-33" value="- allegati: array" style="text;align=left;verticalAlign=top;spacingLeft=4;spacingRight=4;overflow=hidden;rotatable=0;points=[[0,0.5],[1,0.5]];portConstraint=eastwest;fillColor=#FFFFFF;" parent="3HwnEbcw_e1XSlA-QCfB-29" vertex="1"><mxGeometry y="130" width="220" height="26" as="geometry"/></mxCell><mxCell id="3HwnEbcw_e1XSlA-QCfB-36" value="" style="line;strokeWidth=1;align=left;verticalAlign=middle;spacingTop=-1;spacingLeft=3;spacingRight=3;rotatable=0;labelPosition=right;points=[];portConstraint=eastwest;fillColor=#FFFFFF;" parent="3HwnEbcw_e1XSlA-QCfB-29" vertex="1"><mxGeometry y="156" width="220" height="8" as="geometry"/></mxCell><mxCell id="hhPWO3DGut4CV7Ng6Uzc-1" value="+ contaRisposte(): int" style="text;align=left;verticalAlign=top;spacingLeft=4;spacingRight=4;overflow=hidden;rotatable=0;points=[[0,0.5],[1,0.5]];portConstraint=eastwest;fillColor=#FFFFFF;" parent="3HwnEbcw_e1XSlA-QCfB-29" vertex="1"><mxGeometry y="164" width="220" height="26" as="geometry"/></mxCell><mxCell id="3HwnEbcw_e1XSlA-QCfB-47" value="ECategoria" style="swimlane;fontStyle=1;align=center;verticalAlign=top;childLayout=stackLayout;horizontal=1;startSize=26;horizontalStack=0;resizeParent=1;resizeParentMax=0;resizeLast=0;collapsible=1;marginBottom=0;" parent="1" vertex="1"><mxGeometry x="1115" y="210" width="160" height="138" as="geometry"/></mxCell><mxCell id="9W8yVL9PC2JfzHvcN7Px-17" value="- id: int" style="text;align=left;verticalAlign=top;spacingLeft=4;spacingRight=4;overflow=hidden;rotatable=0;points=[[0,0.5],[1,0.5]];portConstraint=eastwest;fillColor=#FFFFFF;" parent="3HwnEbcw_e1XSlA-QCfB-47" vertex="1"><mxGeometry y="26" width="160" height="26" as="geometry"/></mxCell><mxCell id="3HwnEbcw_e1XSlA-QCfB-48" value="- nome: string" style="text;align=left;verticalAlign=top;spacingLeft=4;spacingRight=4;overflow=hidden;rotatable=0;points=[[0,0.5],[1,0.5]];portConstraint=eastwest;fillColor=#FFFFFF;" parent="3HwnEbcw_e1XSlA-QCfB-47" vertex="1"><mxGeometry y="52" width="160" height="26" as="geometry"/></mxCell><mxCell id="3HwnEbcw_e1XSlA-QCfB-49" value="- icona: array" style="text;align=left;verticalAlign=top;spacingLeft=4;spacingRight=4;overflow=hidden;rotatable=0;points=[[0,0.5],[1,0.5]];portConstraint=eastwest;fillColor=#FFFFFF;" parent="3HwnEbcw_e1XSlA-QCfB-47" vertex="1"><mxGeometry y="78" width="160" height="26" as="geometry"/></mxCell><mxCell id="3HwnEbcw_e1XSlA-QCfB-50" value="- descrizione: string" style="text;align=left;verticalAlign=top;spacingLeft=4;spacingRight=4;overflow=hidden;rotatable=0;points=[[0,0.5],[1,0.5]];portConstraint=eastwest;fillColor=#FFFFFF;" parent="3HwnEbcw_e1XSlA-QCfB-47" vertex="1"><mxGeometry y="104" width="160" height="26" as="geometry"/></mxCell><mxCell id="3HwnEbcw_e1XSlA-QCfB-54" value="" style="line;strokeWidth=1;align=left;verticalAlign=middle;spacingTop=-1;spacingLeft=3;spacingRight=3;rotatable=0;labelPosition=right;points=[];portConstraint=eastwest;fillColor=#FFFFFF;" parent="3HwnEbcw_e1XSlA-QCfB-47" vertex="1"><mxGeometry y="130" width="160" height="8" as="geometry"/></mxCell><mxCell id="9W8yVL9PC2JfzHvcN7Px-7" style="edgeStyle=orthogonalEdgeStyle;rounded=0;orthogonalLoop=1;jettySize=auto;html=1;endArrow=openThin;endFill=0;" parent="1" source="3HwnEbcw_e1XSlA-QCfB-56" target="3HwnEbcw_e1XSlA-QCfB-1" edge="1"><mxGeometry relative="1" as="geometry"><Array as="points"><mxPoint x="1055" y="700"/><mxPoint x="495" y="700"/><mxPoint x="495" y="460"/></Array><mxPoint x="460" y="550" as="targetPoint"/></mxGeometry></mxCell><mxCell id="3HwnEbcw_e1XSlA-QCfB-56" value="EValutazione" style="swimlane;fontStyle=1;align=center;verticalAlign=top;childLayout=stackLayout;horizontal=1;startSize=26;horizontalStack=0;resizeParent=1;resizeParentMax=0;resizeLast=0;collapsible=1;marginBottom=0;" parent="1" vertex="1"><mxGeometry x="915" y="480" width="180" height="112" as="geometry"/></mxCell><mxCell id="9W8yVL9PC2JfzHvcN7Px-16" value="- id: int" style="text;align=left;verticalAlign=top;spacingLeft=4;spacingRight=4;overflow=hidden;rotatable=0;points=[[0,0.5],[1,0.5]];portConstraint=eastwest;fillColor=#FFFFFF;" parent="3HwnEbcw_e1XSlA-QCfB-56" vertex="1"><mxGeometry y="26" width="180" height="26" as="geometry"/></mxCell><mxCell id="3HwnEbcw_e1XSlA-QCfB-57" value="- totale: int" style="text;align=left;verticalAlign=top;spacingLeft=4;spacingRight=4;overflow=hidden;rotatable=0;points=[[0,0.5],[1,0.5]];portConstraint=eastwest;fillColor=#FFFFFF;" parent="3HwnEbcw_e1XSlA-QCfB-56" vertex="1"><mxGeometry y="52" width="180" height="26" as="geometry"/></mxCell><mxCell id="3HwnEbcw_e1XSlA-QCfB-63" value="" style="line;strokeWidth=1;align=left;verticalAlign=middle;spacingTop=-1;spacingLeft=3;spacingRight=3;rotatable=0;labelPosition=right;points=[];portConstraint=eastwest;fillColor=#FFFFFF;" parent="3HwnEbcw_e1XSlA-QCfB-56" vertex="1"><mxGeometry y="78" width="180" height="8" as="geometry"/></mxCell><mxCell id="3HwnEbcw_e1XSlA-QCfB-64" value="+ valuta(User u, int valore): void" style="text;align=left;verticalAlign=top;spacingLeft=4;spacingRight=4;overflow=hidden;rotatable=0;points=[[0,0.5],[1,0.5]];portConstraint=eastwest;fillColor=#FFFFFF;" parent="3HwnEbcw_e1XSlA-QCfB-56" vertex="1"><mxGeometry y="86" width="180" height="26" as="geometry"/></mxCell><mxCell id="3HwnEbcw_e1XSlA-QCfB-120" style="edgeStyle=orthogonalEdgeStyle;rounded=0;orthogonalLoop=1;jettySize=auto;html=1;startArrow=none;startFill=0;endArrow=openThin;endFill=0;" parent="1" source="3HwnEbcw_e1XSlA-QCfB-65" target="3HwnEbcw_e1XSlA-QCfB-1" edge="1"><mxGeometry relative="1" as="geometry"><Array as="points"><mxPoint x="545" y="566"/><mxPoint x="545" y="370"/></Array></mxGeometry></mxCell><mxCell id="3HwnEbcw_e1XSlA-QCfB-121" value="&lt;b&gt;&lt;font style=&quot;font-size: 14px&quot;&gt;0 .. *&lt;/font&gt;&lt;/b&gt;" style="edgeLabel;html=1;align=center;verticalAlign=middle;resizable=0;points=[];" parent="3HwnEbcw_e1XSlA-QCfB-120" vertex="1" connectable="0"><mxGeometry x="-0.9372" y="1" relative="1" as="geometry"><mxPoint x="-6" y="-11" as="offset"/></mxGeometry></mxCell><mxCell id="3HwnEbcw_e1XSlA-QCfB-122" value="&lt;b&gt;&lt;font style=&quot;font-size: 14px&quot;&gt;1&lt;/font&gt;&lt;/b&gt;" style="edgeLabel;html=1;align=center;verticalAlign=middle;resizable=0;points=[];" parent="3HwnEbcw_e1XSlA-QCfB-120" vertex="1" connectable="0"><mxGeometry x="0.8655" y="2" relative="1" as="geometry"><mxPoint x="-20" y="-12" as="offset"/></mxGeometry></mxCell><mxCell id="3HwnEbcw_e1XSlA-QCfB-123" value="&lt;b&gt;&lt;font style=&quot;font-size: 14px&quot;&gt;autoreRisposta&lt;/font&gt;&lt;/b&gt;" style="edgeLabel;html=1;align=center;verticalAlign=middle;resizable=0;points=[];" parent="3HwnEbcw_e1XSlA-QCfB-120" vertex="1" connectable="0"><mxGeometry x="-0.5672" y="3" relative="1" as="geometry"><mxPoint x="33" y="11" as="offset"/></mxGeometry></mxCell><mxCell id="3HwnEbcw_e1XSlA-QCfB-65" value="ERisposta" style="swimlane;fontStyle=1;align=center;verticalAlign=top;childLayout=stackLayout;horizontal=1;startSize=26;horizontalStack=0;resizeParent=1;resizeParentMax=0;resizeLast=0;collapsible=1;marginBottom=0;" parent="1" vertex="1"><mxGeometry x="675" y="510" width="160" height="112" as="geometry"/></mxCell><mxCell id="9W8yVL9PC2JfzHvcN7Px-15" value="- id: int" style="text;align=left;verticalAlign=top;spacingLeft=4;spacingRight=4;overflow=hidden;rotatable=0;points=[[0,0.5],[1,0.5]];portConstraint=eastwest;fillColor=#FFFFFF;" parent="3HwnEbcw_e1XSlA-QCfB-65" vertex="1"><mxGeometry y="26" width="160" height="26" as="geometry"/></mxCell><mxCell id="3HwnEbcw_e1XSlA-QCfB-66" value="- testo: string" style="text;align=left;verticalAlign=top;spacingLeft=4;spacingRight=4;overflow=hidden;rotatable=0;points=[[0,0.5],[1,0.5]];portConstraint=eastwest;fillColor=#FFFFFF;" parent="3HwnEbcw_e1XSlA-QCfB-65" vertex="1"><mxGeometry y="52" width="160" height="26" as="geometry"/></mxCell><mxCell id="3HwnEbcw_e1XSlA-QCfB-67" value="- data: string" style="text;align=left;verticalAlign=top;spacingLeft=4;spacingRight=4;overflow=hidden;rotatable=0;points=[[0,0.5],[1,0.5]];portConstraint=eastwest;fillColor=#FFFFFF;" parent="3HwnEbcw_e1XSlA-QCfB-65" vertex="1"><mxGeometry y="78" width="160" height="26" as="geometry"/></mxCell><mxCell id="3HwnEbcw_e1XSlA-QCfB-72" value="" style="line;strokeWidth=1;align=left;verticalAlign=middle;spacingTop=-1;spacingLeft=3;spacingRight=3;rotatable=0;labelPosition=right;points=[];portConstraint=eastwest;fillColor=#FFFFFF;" parent="3HwnEbcw_e1XSlA-QCfB-65" vertex="1"><mxGeometry y="104" width="160" height="8" as="geometry"/></mxCell><mxCell id="3HwnEbcw_e1XSlA-QCfB-146" style="edgeStyle=orthogonalEdgeStyle;rounded=0;orthogonalLoop=1;jettySize=auto;html=1;startArrow=none;startFill=0;endArrow=openThin;endFill=0;" parent="1" source="3HwnEbcw_e1XSlA-QCfB-74" target="3HwnEbcw_e1XSlA-QCfB-47" edge="1"><mxGeometry relative="1" as="geometry"><Array as="points"><mxPoint x="425" y="730"/><mxPoint x="1195" y="730"/></Array></mxGeometry></mxCell><mxCell id="3HwnEbcw_e1XSlA-QCfB-147" value="&lt;b&gt;&lt;font style=&quot;font-size: 14px&quot;&gt;1&lt;/font&gt;&lt;/b&gt;" style="edgeLabel;html=1;align=center;verticalAlign=middle;resizable=0;points=[];" parent="3HwnEbcw_e1XSlA-QCfB-146" vertex="1" connectable="0"><mxGeometry x="0.9721" y="-1" relative="1" as="geometry"><mxPoint x="9" y="-1" as="offset"/></mxGeometry></mxCell><mxCell id="3HwnEbcw_e1XSlA-QCfB-148" value="&lt;b&gt;&lt;font style=&quot;font-size: 14px&quot;&gt;1&lt;/font&gt;&lt;/b&gt;" style="edgeLabel;html=1;align=center;verticalAlign=middle;resizable=0;points=[];" parent="3HwnEbcw_e1XSlA-QCfB-146" vertex="1" connectable="0"><mxGeometry x="-0.9309" y="3" relative="1" as="geometry"><mxPoint x="-23" y="-34" as="offset"/></mxGeometry></mxCell><mxCell id="3HwnEbcw_e1XSlA-QCfB-149" value="&lt;b&gt;&lt;font style=&quot;font-size: 14px&quot;&gt;categoriaGestita&lt;/font&gt;&lt;/b&gt;" style="edgeLabel;html=1;align=center;verticalAlign=middle;resizable=0;points=[];" parent="3HwnEbcw_e1XSlA-QCfB-146" vertex="1" connectable="0"><mxGeometry x="-0.6062" y="-1" relative="1" as="geometry"><mxPoint x="-13" y="-11" as="offset"/></mxGeometry></mxCell><mxCell id="3HwnEbcw_e1XSlA-QCfB-74" value="EModeratore" style="swimlane;fontStyle=1;align=center;verticalAlign=top;childLayout=stackLayout;horizontal=1;startSize=26;horizontalStack=0;resizeParent=1;resizeParentMax=0;resizeLast=0;collapsible=1;marginBottom=0;" parent="1" vertex="1"><mxGeometry x="125" y="581" width="300" height="60" as="geometry"/></mxCell><mxCell id="3HwnEbcw_e1XSlA-QCfB-76" value="" style="line;strokeWidth=1;align=left;verticalAlign=middle;spacingTop=-1;spacingLeft=3;spacingRight=3;rotatable=0;labelPosition=right;points=[];portConstraint=eastwest;fillColor=#FFFFFF;" parent="3HwnEbcw_e1XSlA-QCfB-74" vertex="1"><mxGeometry y="26" width="300" height="8" as="geometry"/></mxCell><mxCell id="OJrcWGWvBB-JbMSh8c1r-11" value="+ verificaCategoria(Thread t): boolean" style="text;align=left;verticalAlign=top;spacingLeft=4;spacingRight=4;overflow=hidden;rotatable=0;points=[[0,0.5],[1,0.5]];portConstraint=eastwest;" parent="3HwnEbcw_e1XSlA-QCfB-74" vertex="1"><mxGeometry y="34" width="300" height="26" as="geometry"/></mxCell><mxCell id="3HwnEbcw_e1XSlA-QCfB-96" value="EAdmin" style="swimlane;fontStyle=1;align=center;verticalAlign=top;childLayout=stackLayout;horizontal=1;startSize=26;horizontalStack=0;resizeParent=1;resizeParentMax=0;resizeLast=0;collapsible=1;marginBottom=0;" parent="1" vertex="1"><mxGeometry x="30" y="760" width="490" height="86" as="geometry"/></mxCell><mxCell id="3HwnEbcw_e1XSlA-QCfB-98" value="" style="line;strokeWidth=1;align=left;verticalAlign=middle;spacingTop=-1;spacingLeft=3;spacingRight=3;rotatable=0;labelPosition=right;points=[];portConstraint=eastwest;" parent="3HwnEbcw_e1XSlA-QCfB-96" vertex="1"><mxGeometry y="26" width="490" height="8" as="geometry"/></mxCell><mxCell id="3HwnEbcw_e1XSlA-QCfB-99" value="+ creaCategoria(int categoriaID, String nome, File icona, String descrizione): Categoria" style="text;align=left;verticalAlign=top;spacingLeft=4;spacingRight=4;overflow=hidden;rotatable=0;points=[[0,0.5],[1,0.5]];portConstraint=eastwest;" parent="3HwnEbcw_e1XSlA-QCfB-96" vertex="1"><mxGeometry y="34" width="490" height="26" as="geometry"/></mxCell><mxCell id="9W8yVL9PC2JfzHvcN7Px-4" value="+ creaModeratore(User u, Categoria c): Moderatore" style="text;align=left;verticalAlign=top;spacingLeft=4;spacingRight=4;overflow=hidden;rotatable=0;points=[[0,0.5],[1,0.5]];portConstraint=eastwest;" parent="3HwnEbcw_e1XSlA-QCfB-96" vertex="1"><mxGeometry y="60" width="490" height="26" as="geometry"/></mxCell><mxCell id="3HwnEbcw_e1XSlA-QCfB-101" value="Extends" style="endArrow=block;endSize=16;endFill=0;html=1;" parent="1" source="3HwnEbcw_e1XSlA-QCfB-74" target="3HwnEbcw_e1XSlA-QCfB-1" edge="1"><mxGeometry width="160" relative="1" as="geometry"><mxPoint x="285" y="510" as="sourcePoint"/><mxPoint x="445" y="510" as="targetPoint"/></mxGeometry></mxCell><mxCell id="3HwnEbcw_e1XSlA-QCfB-102" value="Extends" style="endArrow=block;endSize=16;endFill=0;html=1;" parent="1" source="3HwnEbcw_e1XSlA-QCfB-96" target="3HwnEbcw_e1XSlA-QCfB-74" edge="1"><mxGeometry width="160" relative="1" as="geometry"><mxPoint x="245" y="680" as="sourcePoint"/><mxPoint x="405" y="680" as="targetPoint"/></mxGeometry></mxCell><mxCell id="3HwnEbcw_e1XSlA-QCfB-129" style="edgeStyle=orthogonalEdgeStyle;rounded=0;orthogonalLoop=1;jettySize=auto;html=1;startArrow=none;startFill=0;endArrow=openThin;endFill=0;" parent="1" source="3HwnEbcw_e1XSlA-QCfB-56" target="3HwnEbcw_e1XSlA-QCfB-1" edge="1"><mxGeometry relative="1" as="geometry"><Array as="points"><mxPoint x="955" y="660"/><mxPoint x="515" y="660"/><mxPoint x="515" y="410"/></Array></mxGeometry></mxCell><mxCell id="3HwnEbcw_e1XSlA-QCfB-130" value="&lt;b&gt;&lt;font style=&quot;font-size: 14px&quot;&gt;0 .. 1&lt;/font&gt;&lt;/b&gt;" style="edgeLabel;html=1;align=center;verticalAlign=middle;resizable=0;points=[];" parent="3HwnEbcw_e1XSlA-QCfB-129" vertex="1" connectable="0"><mxGeometry x="-0.9692" y="-1" relative="1" as="geometry"><mxPoint x="21" y="-2" as="offset"/></mxGeometry></mxCell><mxCell id="3HwnEbcw_e1XSlA-QCfB-131" value="&lt;b&gt;&lt;font style=&quot;font-size: 14px&quot;&gt;0 .. *&lt;/font&gt;&lt;/b&gt;" style="edgeLabel;html=1;align=center;verticalAlign=middle;resizable=0;points=[];" parent="3HwnEbcw_e1XSlA-QCfB-129" vertex="1" connectable="0"><mxGeometry x="0.9138" y="1" relative="1" as="geometry"><mxPoint x="-9" y="-14" as="offset"/></mxGeometry></mxCell><mxCell id="3HwnEbcw_e1XSlA-QCfB-133" value="&lt;b&gt;&lt;font style=&quot;font-size: 14px&quot;&gt;utentiPositivi&lt;/font&gt;&lt;/b&gt;" style="edgeLabel;html=1;align=center;verticalAlign=middle;resizable=0;points=[];" parent="3HwnEbcw_e1XSlA-QCfB-129" vertex="1" connectable="0"><mxGeometry x="-0.924" relative="1" as="geometry"><mxPoint x="-50" y="-23" as="offset"/></mxGeometry></mxCell><mxCell id="9W8yVL9PC2JfzHvcN7Px-8" value="&lt;b&gt;&lt;font style=&quot;font-size: 14px&quot;&gt;0 .. 1&lt;/font&gt;&lt;/b&gt;" style="edgeLabel;html=1;align=center;verticalAlign=middle;resizable=0;points=[];" parent="1" vertex="1" connectable="0"><mxGeometry x="985" y="620.0011764705882" as="geometry"><mxPoint x="45" y="-18" as="offset"/></mxGeometry></mxCell><mxCell id="9W8yVL9PC2JfzHvcN7Px-9" value="&lt;b&gt;&lt;font style=&quot;font-size: 14px&quot;&gt;utentiNegativi&lt;/font&gt;&lt;/b&gt;" style="edgeLabel;html=1;align=center;verticalAlign=middle;resizable=0;points=[];" parent="1" vertex="1" connectable="0"><mxGeometry x="1105" y="599.9982352941178" as="geometry"/></mxCell><mxCell id="9W8yVL9PC2JfzHvcN7Px-10" value="&lt;b&gt;&lt;font style=&quot;font-size: 14px&quot;&gt;0 .. *&lt;/font&gt;&lt;/b&gt;" style="edgeLabel;html=1;align=center;verticalAlign=middle;resizable=0;points=[];" parent="1" vertex="1" connectable="0"><mxGeometry x="440.0035294117644" y="419.99882352941194" as="geometry"><mxPoint y="53" as="offset"/></mxGeometry></mxCell></root></mxGraphModel></diagram></mxfile>